<?xml version="1.0" encoding="utf-8"?>
<!-- Generator: Adobe Illustrator 25.2.0, SVG Export Plug-In . SVG Version: 6.00 Build 0)  -->
<svg version="1.1" id="Layer_1" xmlns="http://www.w3.org/2000/svg" xmlns:xlink="http://www.w3.org/1999/xlink" x="0px" y="0px"
	 viewBox="0 0 1024 1024" style="enable-background:new 0 0 1024 1024;" xml:space="preserve">
<path d="M645.3,64.5C398.1-9.3,137.8,131.4,64,378.6S130.8,886.2,378.1,960s507.6-66.8,581.4-314.1
	C1033.2,398.6,892.6,138.3,645.3,64.5z M246.7,708.1c-9.7,13.1-23.9,21.7-40.1,24.1c-3.1,0.5-6.1,0.7-9.1,0.7
	c-13,0-25.6-4.1-36.2-12c-13.1-9.7-21.7-23.9-24.1-40.1c-5-33.3,18.1-64.4,51.4-69.4c33.3-5,64.4,18.1,69.4,51.4
	C260.5,678.9,256.4,695,246.7,708.1z M520.7,572.6c-33.3,5-64.5-18.1-69.5-51.4c-3-19.9-8-31.5-16.4-37.7
	c-8.3-6.2-20.9-7.6-40.8-4.6c-19.9,3-31.5,8-37.7,16.4c-6.2,8.3-7.6,20.9-4.6,40.8c2.4,16.1-1.6,32.2-11.3,45.3
	c-9.7,13.1-23.9,21.6-40,24c-3,0.5-6.1,0.7-9.1,0.7c-29.7,0-55.9-21.8-60.4-52c-5-33.3,18.1-64.4,51.4-69.4c19.9-3,31.5-8,37.7-16.4
	c6.2-8.3,7.6-20.9,4.6-40.8c-2.4-16.1,1.6-32.2,11.3-45.3c9.7-13.1,23.9-21.6,40-24.1c33.3-5,64.4,18.1,69.4,51.4
	c3,19.9,8,31.5,16.4,37.7c8.3,6.2,20.9,7.6,40.8,4.6c33.4-5,64.5,18.1,69.5,51.3C577.1,536.5,554,567.7,520.7,572.6z M834.7,413.1
	c-19.9,3-31.5,8-37.7,16.4c-6.2,8.3-7.6,20.9-4.6,40.8c2.4,16.1-1.6,32.2-11.3,45.3c-9.7,13.1-23.9,21.6-40,24.1
	c-19.9,3-31.5,8-37.7,16.4c-6.2,8.3-7.6,20.9-4.6,40.8c2.4,16.1-1.6,32.2-11.3,45.3c-9.7,13.1-23.9,21.6-40,24
	c-3.1,0.5-6.1,0.7-9.1,0.7c-13,0-25.6-4.1-36.2-12c-13.1-9.7-21.6-23.9-24.1-40c-2.4-16.1,1.6-32.2,11.3-45.3
	c9.7-13.1,23.9-21.6,40-24c19.9-3,31.5-8,37.7-16.4c6.2-8.3,7.6-20.9,4.6-40.8c-5-33.3,18.1-64.4,51.4-69.4c19.9-3,31.5-8,37.7-16.4
	c6.2-8.3,7.6-20.9,4.6-40.8c-5-33.3,18.1-64.4,51.4-69.4c16.1-2.4,32.2,1.6,45.3,11.3c13.1,9.7,21.7,23.9,24.1,40
	C891.1,377,868,408.2,834.7,413.1z"/>
</svg>
